<?xml version="1.0" encoding="utf-8"?>
<!-- Generator: Adobe Illustrator 21.0.2, SVG Export Plug-In . SVG Version: 6.00 Build 0)  -->
<svg version="1.1" id="Layer_1" xmlns="http://www.w3.org/2000/svg" xmlns:xlink="http://www.w3.org/1999/xlink" x="0px" y="0px"
	 viewBox="0 0 47.9 46.5" style="enable-background:new 0 0 47.9 46.5;" xml:space="preserve">
<style type="text/css">
	.st0{fill:#2D3142;}
</style>
<g>
	<path class="st0" d="M47.1,28.5c0.1-0.4,0.2-0.7,0.1-0.9c0-0.8-0.6-1.4-1.4-1.4c-0.9-0.1-1.5,0.4-1.7,1.3
		c-1.6,7.1-6.7,12.7-13.5,14.9c-6.8,2.2-14.2,0.7-19.6-4.1c-0.2-0.2-0.4-0.4-0.7-0.6l-1-1L13,33L0,29.5l3.5,13.2L7.2,39L8,39.8
		c5.9,5.6,12.8,7.7,20.4,6.3C38.1,44.2,44.4,38.3,47.1,28.5z"/>
	<path class="st0" d="M44.6,3.8l-3.8,3.8l-0.7-0.8C35.4,2.3,30,0,24,0c-1.2,0-2.5,0.1-3.7,0.3c-7.1,1-12.7,4.8-16.7,11.3
		c-1.3,2.2-2.2,4.6-2.7,7.1c-0.1,0.8,0.4,1.5,1.2,1.7s1.6-0.3,1.8-1C4,19.2,4,19.1,4,18.9v-0.2C5.6,12.1,10.1,7,16.3,4.5
		c6.2-2.4,13-1.7,18.6,2.1c0.7,0.5,1.4,1.1,2.1,1.7c0.3,0.3,0.7,0.6,1,0.8l0.7,0.6l-3.9,3.8L47.9,17L44.6,3.8z"/>
</g>
</svg>
