<?xml version="1.0" encoding="utf-8"?>
<!-- Generator: Adobe Illustrator 21.0.2, SVG Export Plug-In . SVG Version: 6.00 Build 0)  -->
<svg version="1.1" id="Layer_1" xmlns="http://www.w3.org/2000/svg" xmlns:xlink="http://www.w3.org/1999/xlink" x="0px" y="0px"
	 viewBox="0 0 57.8 46" style="enable-background:new 0 0 57.8 46;" xml:space="preserve">
<style type="text/css">
	.st0{fill:#2D3142;}
</style>
<g>
	<path class="st0" d="M57.6,0.7c0-0.5-0.1-0.7-0.7-0.7c-2.9,0-5.8,0-8.7,0C32.4,0,16.5,0,0.7,0C0.1,0,0,0.2,0,0.7
		c0,4.2,0,8.4,0,12.7c0,0.5,0.1,0.7,0.6,0.7c9.4,0,18.7,0,28.1,0l0,0c0.1,0,0.2,0,0.3,0c9.3,0,18.6,0,27.9,0c0.6,0,0.7-0.2,0.7-0.7
		C57.6,9.1,57.6,4.9,57.6,0.7z M54.7,11.9c-8.6,0-17.3,0-25.9,0l0,0c-8.6,0-17.2,0-25.9,0c-0.7,0-0.8-0.2-0.8-0.8c0-2.8,0-5.5,0-8.3
		c0-0.5,0.1-0.7,0.7-0.7c11.3,0,22.7,0,34,0c5.9,0,11.8,0,17.7,0c1.2,0,1-0.2,1,1c0,2.7,0,5.3,0,8C55.6,11.7,55.4,11.9,54.7,11.9z"
		/>
	<path class="st0" d="M57.6,16.9c0-1,0.2-0.9-0.9-0.9c-6.3,0-12.7,0-19,0c-12.3,0-24.6,0-36.9,0C0.2,16,0,16.2,0,16.8
		c0,4.1,0,8.3,0,12.4c0,0.7,0.2,0.9,0.9,0.9c9.3,0,18.6,0,28,0c9.3,0,18.6,0,28,0c0.7,0,0.9-0.2,0.9-0.9
		C57.6,25.1,57.6,21,57.6,16.9z M55.5,27.3c0,0.5-0.1,0.7-0.7,0.7c-10.6,0-21.2,0-31.8,0c-6.7,0-13.4,0-20.1,0
		c-0.7,0-0.8-0.2-0.8-0.8c0-2.7,0-5.5,0-8.2c0-0.6,0.1-0.8,0.7-0.8c8.7,0,17.3,0,26,0l0,0c8.6,0,17.3,0,25.9,0
		c0.5,0,0.8,0.1,0.7,0.7C55.5,21.6,55.5,24.5,55.5,27.3z"/>
	<path class="st0" d="M57.6,32.6c0-0.5-0.1-0.7-0.6-0.7c-9.4,0-18.7,0-28.1,0l0,0c-9.4,0-18.8,0-28.2,0C0.2,31.9,0,32,0,32.6
		c0,4.2,0,8.4,0,12.6C0,45.8,0.2,46,0.8,46c4.8,0,9.6,0,14.5,0c13.9,0,27.9,0,41.8,0c0.5,0,0.6-0.2,0.6-0.6
		C57.6,41.1,57.6,36.9,57.6,32.6z M54.9,43.9c-14.1,0-28.2,0-42.3,0c-3.3,0-6.5,0-9.8,0c-0.7,0-0.8-0.2-0.8-0.8c0-2.7,0-5.5,0-8.2
		c0-0.6,0.1-0.8,0.8-0.8c8.7,0,17.3,0,26,0l0,0c8.4,0,16.8,0,25.3,0c1.4,0,1.4,0,1.4,1.4c0,2.6,0,5.2,0,7.8
		C55.5,43.7,55.4,43.9,54.9,43.9z"/>
	<path class="st0" d="M16.5,9.9c-3.9,0-7.8,0-11.6,0c-0.5,0-0.7-0.1-0.7-0.7c0-1.5,0-2.9,0-4.4C4.2,4.2,4.4,4,4.9,4
		c6.6,0,13.2,0,19.8,0c1.2,0,2.4,0,3.5,0c0.5,0,0.7,0.2,0.7,0.7c0,1.5,0,2.9,0,4.4c0,0.6-0.2,0.7-0.8,0.7
		C24.2,9.8,20.3,9.9,16.5,9.9L16.5,9.9z"/>
	<path class="st0" d="M32.7,6.9c0-1.5,1.2-2.8,2.7-2.8s2.8,1.3,2.8,2.8c0,1.6-1.3,2.9-2.8,2.9C34,9.7,32.7,8.5,32.7,6.9z"/>
	<path class="st0" d="M45.9,6.9c0,1.5-1.3,2.8-2.8,2.8s-2.8-1.3-2.8-2.8c0-1.6,1.2-2.8,2.8-2.9C44.7,4.1,45.9,5.3,45.9,6.9z"/>
	<path class="st0" d="M48,6.9c0-1.6,1.2-2.8,2.8-2.8c1.5,0,2.8,1.3,2.8,2.8c0,1.6-1.3,2.8-2.8,2.8C49.2,9.7,48,8.5,48,6.9z"/>
	<path class="st0" d="M16.6,20.2c3.9,0,7.7,0,11.6,0c0.6,0,0.7,0.2,0.7,0.8c0,1.4,0,2.9,0,4.3c0,0.5-0.1,0.7-0.7,0.7
		c-4,0-8.1,0-12.1,0c-3.6,0-7.2,0-10.8,0c-1.3,0-1.1,0-1.1-1.1c0-1.3,0-2.6,0-3.9c0-0.6,0.1-0.8,0.7-0.7
		C8.8,20.2,12.7,20.2,16.6,20.2z"/>
	<path class="st0" d="M32.7,23c0-1.6,1.3-2.8,2.8-2.8s2.8,1.3,2.7,2.9c0,1.4-1.3,2.7-2.8,2.7C33.9,25.8,32.7,24.5,32.7,23z"/>
	<path class="st0" d="M53.5,23c0,1.5-1.3,2.8-2.9,2.8c-1.5,0-2.7-1.3-2.7-2.8c0-1.6,1.3-2.8,2.8-2.8C52.3,20.2,53.5,21.5,53.5,23z"
		/>
	<path class="st0" d="M45.9,23c0,1.6-1.2,2.8-2.7,2.8s-2.8-1.3-2.8-2.8s1.2-2.8,2.7-2.8C44.7,20.1,45.9,21.4,45.9,23z"/>
	<path class="st0" d="M16.5,36.1c3.9,0,7.8,0,11.6,0c0.5,0,0.7,0.1,0.7,0.7c0,1.5,0,2.9,0,4.4c0,0.6-0.2,0.7-0.7,0.7
		c-5.7,0-11.4,0-17.1,0c-2.1,0-4.1,0-6.2,0c-0.6,0-0.8-0.1-0.8-0.7c0-1.5,0-2.9,0-4.4c0-0.5,0.2-0.7,0.7-0.7
		C8.7,36.1,12.6,36.1,16.5,36.1L16.5,36.1z"/>
	<path class="st0" d="M32.7,38.9c0-1.6,1.2-2.8,2.8-2.8c1.5,0,2.8,1.3,2.8,2.8c0,1.6-1.3,2.8-2.8,2.8S32.7,40.4,32.7,38.9z"/>
	<path class="st0" d="M45.9,38.9c0,1.6-1.2,2.8-2.7,2.8s-2.8-1.3-2.8-2.8s1.2-2.8,2.8-2.8C44.7,36.1,45.9,37.3,45.9,38.9z"/>
	<path class="st0" d="M48,38.8c0-1.5,1.3-2.7,2.7-2.7c1.5,0,2.8,1.3,2.8,2.8c0,1.6-1.3,2.8-2.8,2.8C49.2,41.7,48,40.4,48,38.8z"/>
</g>
</svg>
